<?xml version="1.0" encoding="utf-8"?>
<!-- Generator: Adobe Illustrator 16.0.0, SVG Export Plug-In . SVG Version: 6.00 Build 0)  -->
<!DOCTYPE svg PUBLIC "-//W3C//DTD SVG 1.1//EN" "http://www.w3.org/Graphics/SVG/1.1/DTD/svg11.dtd">
<svg version="1.1" id="Calque_1" xmlns="http://www.w3.org/2000/svg" xmlns:xlink="http://www.w3.org/1999/xlink" x="0px" y="0px"
	 width="1133.86px" height="850.39px" viewBox="0 0 1133.86 850.39" enable-background="new 0 0 1133.86 850.39"
	 xml:space="preserve">
<g>
	<defs>
		<rect id="SVGID_1_" width="1133.86" height="850.39"/>
	</defs>
	<clipPath id="SVGID_2_">
		<use xlink:href="#SVGID_1_"  display="none" overflow="visible"/>
	</clipPath>
	<path display="none" clip-path="url(#SVGID_2_)" fill="#12491D" d="M959.75,335.996c17.697-8.89,35.781-2.037,53.53,1.222
		c2.642,0.547,5.312,1.201,7.973,1.954c21.282,6.029,41.888,17.687,40.601,42.776c-0.001,2.279-0.175,4.564-0.505,6.837
		c-0.265,1.819-0.63,3.629-1.09,5.423c-3.736,10.358-10.589,19.036-19.007,26.393c-2.104,1.839-4.306,3.595-6.577,5.261
		c-19.831,16.221-53.292,30.627-73.143,6.954c-1.489-1.64-2.815-3.381-4.009-5.201c-5.959-9.122-8.57-20.191-10.693-31.293
		c-0.776-2.994-1.528-5.996-2.19-8.998c-0.496-2.252-0.941-4.505-1.313-6.748c-1.549-7.377-1.888-15.111-0.317-22.371
		c0.523-2.42,1.26-4.788,2.232-7.06c1.8-4.558,5.686-8.722,8.886-12.201C955.812,337.86,957.69,336.88,959.75,335.996"/>
	<path display="none" clip-path="url(#SVGID_2_)" fill="#13007C" d="M514.636,411.407c2.996,0,5.707,0.522,8.134,1.564
		c2.427,1.043,4.494,2.56,6.2,4.551c1.707,1.991,3.015,4.418,3.925,7.281c0.91,2.863,1.366,6.096,1.366,9.699
		c0,3.678-0.465,6.958-1.394,9.84c-0.929,2.882-2.247,5.319-3.953,7.31c-1.707,1.991-3.774,3.508-6.201,4.551
		c-2.427,1.043-5.119,1.564-8.077,1.564s-5.641-0.512-8.049-1.536c-2.408-1.023-4.465-2.531-6.172-4.521
		c-1.706-1.991-3.033-4.429-3.981-7.311c-0.949-2.882-1.423-6.181-1.423-9.896c0-3.642,0.465-6.894,1.394-9.756
		c0.929-2.863,2.247-5.28,3.953-7.252c1.707-1.972,3.774-3.48,6.201-4.523C508.986,411.929,511.678,411.407,514.636,411.407
		 M514.636,453.216c2.237,0,4.276-0.389,6.115-1.166c1.839-0.778,3.422-1.953,4.75-3.527c1.327-1.573,2.36-3.526,3.1-5.858
		c0.739-2.332,1.109-5.054,1.109-8.162c0-3.072-0.37-5.774-1.109-8.106c-0.74-2.332-1.773-4.266-3.1-5.802
		c-1.328-1.536-2.911-2.693-4.75-3.47c-1.839-0.778-3.878-1.166-6.115-1.166c-2.275,0-4.333,0.388-6.172,1.166
		c-1.839,0.777-3.422,1.934-4.75,3.47c-1.327,1.536-2.351,3.47-3.071,5.802c-0.721,2.332-1.081,5.034-1.081,8.106
		c0,3.108,0.36,5.83,1.081,8.162c0.72,2.332,1.744,4.285,3.071,5.858c1.328,1.574,2.911,2.749,4.75,3.527
		C510.303,452.828,512.361,453.216,514.636,453.216"/>
	<path display="none" clip-path="url(#SVGID_2_)" fill="#13007C" d="M550.472,419.086c1.479-1.744,2.929-3.129,4.352-4.152
		c1.422-1.024,2.806-1.802,4.152-2.333c1.346-0.531,2.626-0.862,3.84-0.995c1.213-0.133,2.351-0.199,3.412-0.199
		c9.063,0,13.595,5.347,13.595,16.041v29.181h-4.55v-28.783c0-2.047-0.181-3.82-0.541-5.318s-0.948-2.73-1.764-3.697
		c-0.814-0.967-1.877-1.688-3.185-2.162c-1.309-0.474-2.911-0.711-4.807-0.711c-2.503,0-4.958,0.74-7.366,2.219
		c-2.408,1.479-4.788,3.565-7.139,6.257v32.196h-4.551v-44.085h4.551V419.086z"/>
	<polygon display="none" clip-path="url(#SVGID_2_)" fill="#13007C" points="627.662,412.545 610.938,456.629 606.843,456.629 
		590.119,412.545 594.727,412.545 608.891,450.373 623.111,412.545 	"/>
	<path display="none" clip-path="url(#SVGID_2_)" fill="#13007C" d="M655.648,457.767c-3.071,0-5.859-0.522-8.362-1.564
		c-2.502-1.043-4.654-2.56-6.456-4.551c-1.801-1.991-3.195-4.427-4.181-7.309c-0.986-2.883-1.479-6.163-1.479-9.842
		c0-3.564,0.475-6.778,1.422-9.642c0.949-2.863,2.295-5.29,4.039-7.281c1.745-1.991,3.812-3.517,6.2-4.579s5.044-1.593,7.964-1.593
		c2.996,0,5.707,0.531,8.134,1.593c2.428,1.062,4.494,2.588,6.2,4.579c1.707,1.991,3.016,4.418,3.925,7.281
		c0.91,2.863,1.365,6.096,1.365,9.699v1.023h-34.698c0.229,2.995,0.777,5.594,1.65,7.794c0.872,2.198,2.009,4.028,3.413,5.488
		c1.403,1.46,3.024,2.55,4.863,3.271s3.84,1.081,6.001,1.081c1.517,0,3.034-0.181,4.551-0.54c1.517-0.36,2.891-0.901,4.124-1.621
		c1.231-0.722,2.266-1.612,3.1-2.674c0.834-1.062,1.327-2.275,1.479-3.641h4.494c-0.418,2.085-1.157,3.935-2.22,5.546
		c-1.062,1.611-2.369,2.978-3.925,4.096c-1.555,1.119-3.317,1.963-5.29,2.531C659.99,457.482,657.886,457.767,655.648,457.767
		 M669.812,431.032c-0.759-5.044-2.475-8.817-5.148-11.32c-2.673-2.503-5.963-3.754-9.869-3.754c-1.934,0-3.734,0.303-5.403,0.91
		c-1.669,0.607-3.157,1.536-4.466,2.787c-1.309,1.252-2.407,2.826-3.299,4.722s-1.526,4.114-1.906,6.655H669.812z"/>
	<path display="none" clip-path="url(#SVGID_2_)" fill="#13007C" d="M706.559,416.072c-0.417-0.076-0.872-0.114-1.365-0.114h-1.65
		c-1.289,0-2.541,0.266-3.754,0.797c-1.214,0.531-2.37,1.223-3.47,2.076s-2.123,1.82-3.072,2.901
		c-0.947,1.081-1.763,2.19-2.445,3.327v31.569h-4.551v-44.083h4.551v6.087c1.29-1.517,2.569-2.75,3.84-3.698
		c1.27-0.948,2.503-1.687,3.696-2.218c1.195-0.531,2.343-0.882,3.442-1.052c1.101-0.171,2.105-0.256,3.015-0.256
		c0.304,0,0.588,0.009,0.854,0.028c0.265,0.019,0.569,0.047,0.91,0.085V416.072z"/>
	<path display="none" clip-path="url(#SVGID_2_)" fill="#13007C" d="M748.822,454.013c0,3.525-0.38,6.532-1.138,9.016
		s-1.887,4.503-3.385,6.059c-1.497,1.554-3.384,2.691-5.659,3.412c-2.276,0.721-4.911,1.08-7.907,1.08
		c-2.503,0-4.759-0.274-6.769-0.823c-2.01-0.551-3.735-1.337-5.176-2.361c-1.441-1.024-2.57-2.294-3.386-3.812
		c-0.814-1.517-1.279-3.242-1.394-5.177h4.551c0.19,2.617,1.271,4.542,3.242,5.774s4.892,1.849,8.76,1.849
		c2.276,0,4.267-0.274,5.974-0.825c1.706-0.55,3.129-1.45,4.266-2.701c1.138-1.252,2.001-2.901,2.588-4.949
		c0.588-2.048,0.882-4.569,0.882-7.565v-2.787c-1.479,1.744-2.873,3.119-4.181,4.124c-1.308,1.004-2.569,1.764-3.783,2.275
		c-1.213,0.512-2.379,0.834-3.498,0.967s-2.209,0.199-3.271,0.199c-2.769,0-5.215-0.55-7.337-1.65
		c-2.124-1.099-3.906-2.645-5.348-4.636s-2.532-4.389-3.271-7.195c-0.74-2.806-1.109-5.935-1.109-9.386
		c0-3.64,0.445-6.911,1.336-9.812c0.892-2.901,2.124-5.366,3.698-7.395c1.573-2.029,3.432-3.584,5.574-4.664
		c2.143-1.081,4.446-1.621,6.911-1.621c1.062,0,2.161,0.075,3.3,0.227c1.137,0.152,2.312,0.427,3.525,0.825
		c1.214,0.398,2.446,0.938,3.698,1.621c1.251,0.683,2.503,1.555,3.754,2.617v-4.153h4.551V454.013z M744.271,422.329
		c-2.048-2.124-4.181-3.716-6.398-4.778c-2.22-1.062-4.675-1.593-7.367-1.593c-2.047,0-3.896,0.389-5.546,1.166
		c-1.649,0.778-3.062,1.953-4.237,3.527c-1.176,1.574-2.086,3.546-2.73,5.916s-0.968,5.148-0.968,8.333
		c0,5.992,1.157,10.542,3.471,13.652c2.312,3.109,5.536,4.664,9.67,4.664c2.729,0,5.232-0.749,7.509-2.247
		c2.274-1.497,4.474-3.726,6.598-6.684V422.329z"/>
	<path display="none" clip-path="url(#SVGID_2_)" fill="#13007C" d="M781.302,457.767c-3.07,0-5.858-0.522-8.361-1.564
		c-2.502-1.043-4.654-2.56-6.456-4.551c-1.801-1.991-3.195-4.427-4.182-7.309c-0.985-2.883-1.479-6.163-1.479-9.842
		c0-3.564,0.474-6.778,1.422-9.642c0.949-2.863,2.295-5.29,4.039-7.281c1.745-1.991,3.811-3.517,6.2-4.579
		c2.389-1.062,5.044-1.593,7.964-1.593c2.996,0,5.707,0.531,8.134,1.593s4.494,2.588,6.2,4.579c1.707,1.991,3.015,4.418,3.925,7.281
		c0.91,2.863,1.365,6.096,1.365,9.699v1.023h-34.698c0.229,2.995,0.777,5.594,1.65,7.794c0.872,2.198,2.009,4.028,3.413,5.488
		c1.402,1.46,3.023,2.55,4.862,3.271s3.84,1.081,6.001,1.081c1.518,0,3.034-0.181,4.552-0.54c1.517-0.36,2.891-0.901,4.124-1.621
		c1.231-0.722,2.266-1.612,3.1-2.674c0.834-1.062,1.327-2.275,1.479-3.641h4.494c-0.418,2.085-1.157,3.935-2.219,5.546
		s-2.37,2.978-3.925,4.096c-1.555,1.119-3.318,1.963-5.29,2.531S783.54,457.767,781.302,457.767 M795.466,431.032
		c-0.758-5.044-2.474-8.817-5.147-11.32c-2.673-2.503-5.963-3.754-9.869-3.754c-1.935,0-3.735,0.303-5.404,0.91
		c-1.668,0.607-3.157,1.536-4.465,2.787c-1.309,1.252-2.408,2.826-3.299,4.722c-0.893,1.896-1.527,4.114-1.906,6.655H795.466z"/>
	<path display="none" clip-path="url(#SVGID_2_)" fill="#13007C" d="M816.285,419.086c1.479-1.744,2.929-3.129,4.352-4.152
		c1.423-1.024,2.807-1.802,4.152-2.333c1.346-0.531,2.626-0.862,3.84-0.995c1.213-0.133,2.352-0.199,3.412-0.199
		c9.064,0,13.595,5.347,13.595,16.041v29.181h-4.55v-28.783c0-2.047-0.18-3.82-0.541-5.318c-0.359-1.498-0.947-2.73-1.763-3.697
		c-0.815-0.967-1.877-1.688-3.185-2.162c-1.31-0.474-2.911-0.711-4.808-0.711c-2.503,0-4.958,0.74-7.366,2.219
		c-2.407,1.479-4.788,3.565-7.139,6.257v32.196h-4.551v-44.085h4.551V419.086z"/>
	<path display="none" clip-path="url(#SVGID_2_)" fill="#13007C" d="M877.377,457.767c-2.92,0-5.584-0.513-7.991-1.536
		c-2.408-1.024-4.476-2.522-6.2-4.494c-1.727-1.971-3.062-4.397-4.012-7.281c-0.947-2.882-1.422-6.181-1.422-9.896
		c0-3.642,0.465-6.902,1.395-9.784c0.929-2.882,2.256-5.309,3.981-7.281c1.726-1.972,3.792-3.479,6.2-4.522s5.091-1.564,8.049-1.564
		c2.124,0,4.105,0.284,5.944,0.853c1.839,0.569,3.47,1.403,4.892,2.503c1.423,1.099,2.617,2.465,3.584,4.095
		c0.968,1.631,1.641,3.489,2.02,5.575h-4.438c-0.188-1.365-0.615-2.579-1.279-3.641c-0.663-1.062-1.526-1.953-2.588-2.673
		c-1.062-0.721-2.285-1.261-3.67-1.621c-1.384-0.361-2.871-0.541-4.465-0.541c-2.236,0-4.285,0.389-6.143,1.166
		c-1.859,0.778-3.451,1.944-4.779,3.499c-1.327,1.554-2.351,3.498-3.07,5.83c-0.722,2.332-1.081,5.034-1.081,8.106
		c0,3.108,0.359,5.83,1.081,8.163c0.72,2.332,1.743,4.274,3.07,5.83c1.328,1.555,2.92,2.721,4.779,3.498
		c1.857,0.777,3.906,1.166,6.143,1.166c1.479,0,2.901-0.181,4.267-0.54c1.364-0.36,2.588-0.892,3.669-1.594
		c1.081-0.7,1.981-1.572,2.702-2.615s1.176-2.267,1.364-3.669h4.438c-0.417,2.122-1.109,3.99-2.076,5.603
		c-0.967,1.611-2.162,2.967-3.584,4.067c-1.422,1.1-3.052,1.924-4.892,2.474C881.426,457.492,879.463,457.767,877.377,457.767"/>
	<path display="none" clip-path="url(#SVGID_2_)" fill="#13007C" d="M921.461,457.767c-3.071,0-5.858-0.522-8.361-1.564
		c-2.503-1.043-4.654-2.56-6.457-4.551c-1.801-1.991-3.194-4.427-4.181-7.309c-0.985-2.883-1.479-6.163-1.479-9.842
		c0-3.564,0.474-6.778,1.423-9.642c0.948-2.863,2.294-5.29,4.038-7.281c1.745-1.991,3.811-3.517,6.2-4.579s5.044-1.593,7.964-1.593
		c2.996,0,5.707,0.531,8.134,1.593s4.494,2.588,6.2,4.579c1.707,1.991,3.015,4.418,3.925,7.281c0.91,2.863,1.366,6.096,1.366,9.699
		v1.023h-34.699c0.228,2.995,0.777,5.594,1.649,7.794c0.872,2.198,2.011,4.028,3.413,5.488c1.403,1.46,3.024,2.55,4.863,3.271
		s3.84,1.081,6.001,1.081c1.518,0,3.034-0.181,4.551-0.54c1.518-0.36,2.892-0.901,4.124-1.621c1.232-0.722,2.267-1.612,3.101-2.674
		c0.834-1.062,1.327-2.275,1.479-3.641h4.494c-0.417,2.085-1.157,3.935-2.219,5.546c-1.062,1.611-2.37,2.978-3.925,4.096
		c-1.556,1.119-3.318,1.963-5.29,2.531C925.803,457.482,923.699,457.767,921.461,457.767 M935.625,431.032
		c-0.758-5.044-2.474-8.817-5.147-11.32s-5.964-3.754-9.869-3.754c-1.935,0-3.735,0.303-5.404,0.91
		c-1.668,0.607-3.157,1.536-4.465,2.787c-1.309,1.252-2.408,2.826-3.299,4.722c-0.893,1.896-1.527,4.114-1.906,6.655H935.625z"/>
	<path display="none" clip-path="url(#SVGID_2_)" fill="#FFFFFF" d="M985.07,416.648h-4.905v-47.521h4.905V416.648z M985.131,357.17
		h-4.905v-7.665h4.905V357.17z"/>
	<path display="none" clip-path="url(#SVGID_2_)" fill="#FFFFFF" d="M1016.465,417.078c-0.695,0.082-1.39,0.143-2.085,0.184
		s-1.39,0.061-2.085,0.061c-2.125,0-3.832-0.296-5.12-0.889c-1.287-0.593-2.269-1.482-2.943-2.667
		c-0.674-1.186-1.113-2.668-1.317-4.446c-0.205-1.778-0.308-3.853-0.308-6.223v-29.065h-6.069v-4.906h6.069V356.68h4.906v12.447
		h7.787v4.906h-7.787v29.494c0,1.962,0.144,3.526,0.429,4.691c0.286,1.165,0.715,2.064,1.287,2.698
		c0.573,0.633,1.278,1.042,2.116,1.226s1.788,0.276,2.851,0.276h1.165c0.327,0,0.695-0.021,1.104-0.061V417.078z"/>
	<path display="none" clip-path="url(#SVGID_2_)" fill="#13007C" d="M472.026,457.293c-2.92,0-5.584-0.513-7.992-1.536
		c-2.408-1.024-4.475-2.522-6.2-4.494c-1.726-1.971-3.062-4.398-4.01-7.281c-0.949-2.882-1.423-6.181-1.423-9.896
		c0-3.642,0.465-6.902,1.394-9.784c0.929-2.882,2.256-5.309,3.982-7.281c1.725-1.972,3.792-3.479,6.2-4.522
		c2.408-1.043,5.091-1.564,8.049-1.564c2.124,0,4.105,0.284,5.944,0.853s3.47,1.403,4.892,2.503
		c1.422,1.099,2.617,2.465,3.584,4.095c0.967,1.631,1.64,3.489,2.019,5.575h-4.437c-0.189-1.365-0.616-2.579-1.28-3.641
		c-0.663-1.062-1.526-1.953-2.588-2.673c-1.062-0.721-2.285-1.261-3.669-1.621c-1.384-0.361-2.872-0.541-4.465-0.541
		c-2.237,0-4.285,0.389-6.143,1.166c-1.858,0.778-3.451,1.944-4.778,3.499c-1.328,1.554-2.352,3.498-3.072,5.83
		c-0.721,2.332-1.081,5.034-1.081,8.106c0,3.108,0.36,5.83,1.081,8.162c0.72,2.332,1.744,4.275,3.072,5.83
		c1.327,1.556,2.92,2.722,4.778,3.498c1.858,0.778,3.906,1.166,6.143,1.166c1.479,0,2.901-0.18,4.266-0.54
		c1.365-0.359,2.588-0.891,3.669-1.593c1.081-0.701,1.982-1.573,2.702-2.616c0.721-1.043,1.176-2.266,1.365-3.669h4.437
		c-0.417,2.123-1.109,3.991-2.076,5.604c-0.967,1.61-2.162,2.967-3.584,4.066c-1.422,1.101-3.052,1.925-4.892,2.475
		C476.075,457.018,474.113,457.293,472.026,457.293"/>
</g>
<path fill="#FFFFFF" d="M561.95,490.15C407.31,365.508,435.961,289.804,627.766,272.882
	c-110.945-54.147-200.242,13.104-213.742,58.209C398.652,382.446,441.89,485.356,561.95,490.15"/>
<path fill="#FFFFFF" d="M618.825,403.506c-64.764,187.763-145.7,186.503-226.709,11.825
	c-13.283,122.737,80.282,183.911,127.292,181.303C572.932,593.664,655.061,518.068,618.825,403.506"/>
<path fill="#FFFFFF" d="M519.402,358.019c198.195-12.964,228.362,62.15,98.658,204.458
	c118.311-35.262,138.499-145.212,117.896-187.548C712.502,326.728,611.008,280.263,519.402,358.019"/>
</svg>
