<!DOCTYPE svg PUBLIC "-//W3C//DTD SVG 1.1//EN" "http://www.w3.org/Graphics/SVG/1.1/DTD/svg11.dtd">
<!-- Uploaded to: SVG Repo, www.svgrepo.com, Transformed by: SVG Repo Mixer Tools -->
<svg width="800px" height="800px" viewBox="0 0 32.00 32.00" xmlns="http://www.w3.org/2000/svg" fill="#000000" stroke="#000000" stroke-width="0.00032">
<g id="SVGRepo_bgCarrier" stroke-width="0">
<rect x="0" y="0" width="32.00" height="32.00" rx="1.6" fill="#303030" strokewidth="0"/>
</g>
<g id="SVGRepo_tracerCarrier" stroke-linecap="round" stroke-linejoin="round"/>
<g id="SVGRepo_iconCarrier">
<title>file_type_azure</title>
<path d="M14.98,25.994c3.57-.726,6.518-1.327,6.552-1.335l.062-.015-3.37-4.615c-1.854-2.538-3.37-4.625-3.37-4.637s3.48-11.056,3.5-11.095c.007-.013,2.375,4.694,5.741,11.411l5.774,11.521.044.088-10.711,0-10.711,0Z" style="fill:#F1FF00"/>
<path d="M2.125,24.586c0-.006,1.588-3.18,3.529-7.053l3.529-7.041L13.3,6.52c2.262-2.185,4.119-3.976,4.126-3.979a.914.914,0,0,1-.066.192L12.89,13.759,8.5,24.589l-3.189,0C3.56,24.6,2.125,24.593,2.125,24.586Z" style="fill:#F1FF00"/>
</g>
</svg>