<!DOCTYPE svg PUBLIC "-//W3C//DTD SVG 1.1//EN" "http://www.w3.org/Graphics/SVG/1.1/DTD/svg11.dtd">
<!-- Uploaded to: SVG Repo, www.svgrepo.com, Transformed by: SVG Repo Mixer Tools -->
<svg fill="#F1FF00" width="800px" height="800px" viewBox="-6.4 -6.4 44.80 44.80" id="icon" xmlns="http://www.w3.org/2000/svg" stroke="#F1FF00" stroke-width="0.00032">
<g id="SVGRepo_bgCarrier" stroke-width="0">
<rect x="-6.4" y="-6.4" width="44.80" height="44.80" rx="8.96" fill="#000000" strokewidth="0"/>
</g>
<g id="SVGRepo_tracerCarrier" stroke-linecap="round" stroke-linejoin="round"/>
<g id="SVGRepo_iconCarrier"> <defs> <style> .cls-1 { fill: none; } </style> </defs> <polygon points="11 23.18 9 21.179 7.589 22.589 11 26 17 20 15.59 18.59 11 23.18"/> <path d="M28,30H24V28h4V16H24V8a4.0045,4.0045,0,0,0-4-4V2a6.0067,6.0067,0,0,1,6,6v6h2a2.0021,2.0021,0,0,1,2,2V28A2.0021,2.0021,0,0,1,28,30Z" transform="translate(0 0)"/> <path d="M20,14H18V8A6,6,0,0,0,6,8v6H4a2,2,0,0,0-2,2V28a2,2,0,0,0,2,2H20a2,2,0,0,0,2-2V16A2,2,0,0,0,20,14ZM8,8a4,4,0,0,1,8,0v6H8ZM20,28H4V16H20Z" transform="translate(0 0)"/> <rect id="_Transparent_Rectangle_" data-name="&lt;Transparent Rectangle&gt;" class="cls-1" width="32" height="32"/> </g>
</svg>