<!DOCTYPE svg PUBLIC "-//W3C//DTD SVG 1.1//EN" "http://www.w3.org/Graphics/SVG/1.1/DTD/svg11.dtd">
<!-- Uploaded to: SVG Repo, www.svgrepo.com, Transformed by: SVG Repo Mixer Tools -->
<svg width="800px" height="800px" viewBox="-4.32 -4.32 32.64 32.64" fill="none" xmlns="http://www.w3.org/2000/svg">
<g id="SVGRepo_bgCarrier" stroke-width="0">
<rect x="-4.32" y="-4.32" width="32.64" height="32.64" rx="6.528" fill="#000000" strokewidth="0"/>
</g>
<g id="SVGRepo_tracerCarrier" stroke-linecap="round" stroke-linejoin="round"/>
<g id="SVGRepo_iconCarrier"> <path d="M3 9.312C3 4.93757 3.93757 4 8.312 4H9.92963C10.5983 4 11.2228 4.3342 11.5937 4.8906L12.4063 6.1094C12.7772 6.6658 13.4017 7 14.0704 7C15.9647 7 17.8145 7 19.1258 7C20.1807 7 21.0128 7.82095 21.0029 8.8758C21.0013 9.05376 21 9.20638 21 9.312V14.688C21 19.0624 20.0624 20 15.688 20H8.312C3.93757 20 3 19.0624 3 14.688V9.312Z" stroke="#66B2FF" stroke-width="2"/> <path d="M9 14L10.9145 15.9145V15.9145C10.9617 15.9617 11.0383 15.9617 11.0855 15.9145V15.9145L16 11" stroke="#66B2FF" stroke-width="2" stroke-linecap="round" stroke-linejoin="round"/> </g>
</svg>