<!DOCTYPE svg PUBLIC "-//W3C//DTD SVG 1.1//EN" "http://www.w3.org/Graphics/SVG/1.1/DTD/svg11.dtd">
<!-- Uploaded to: SVG Repo, www.svgrepo.com, Transformed by: SVG Repo Mixer Tools -->
<svg width="800px" height="800px" viewBox="-2.4 -2.4 28.80 28.80" fill="none" xmlns="http://www.w3.org/2000/svg">
<g id="SVGRepo_bgCarrier" stroke-width="0">
<rect x="-2.4" y="-2.4" width="28.80" height="28.80" rx="5.76" fill="#000000" strokewidth="0"/>
</g>
<g id="SVGRepo_tracerCarrier" stroke-linecap="round" stroke-linejoin="round"/>
<g id="SVGRepo_iconCarrier"> <path d="M3 19C3.69137 16.6928 5.46998 16 9.5 16C13.53 16 15.3086 16.6928 16 19" stroke="#F1FF00" stroke-width="2" stroke-linecap="round"/> <path d="M13 9.5C13 11.433 11.433 13 9.5 13C7.567 13 6 11.433 6 9.5C6 7.567 7.567 6 9.5 6C11.433 6 13 7.567 13 9.5Z" stroke="#F1FF00" stroke-width="2"/> <path d="M15 5L16.5 6.5V6.5C16.7761 6.77614 17.2239 6.77614 17.5 6.5V6.5L21 3" stroke="#F1FF00" stroke-width="2" stroke-linecap="round" stroke-linejoin="round"/> </g>
</svg>