<?xml version="1.0" encoding="utf-8"?>
<svg data-name="logosandtypes com" id="logosandtypes_com" viewBox="0 0 150 150" xmlns="http://www.w3.org/2000/svg"><rect fill="#000000" height="150.0" rx="20%" ry="20%" width="150.0" x="0" y="0"/><g transform="translate(30.0,30.0) scale(0.6,0.6)">
<defs>
<style>
      .cls-1 {
        fill: #F1FF00;
      }

      .cls-2 {
        fill: none;
      }
    </style>
</defs>
<path class="cls-2" d="M0,0H150V150H0V0Z"/>
<g>
<path class="cls-1" d="M74.15,116.24c-1.72,.47-3.4,.95-4.99,1.38l9.21,16.31h44.67l-17.9-31.72c-7.53,4.69-17.3,9.34-30.43,13.86,0,0-.56,.17-.56,.17Z"/>
<path class="cls-1" d="M65.98,32.79l-7.49-13.26H13.81l20.1,35.64c8.56-8.91,19.54-16.57,32.06-22.38Z"/>
</g>
<path class="cls-1" d="M15.4,129.02s1.64-29.44,14.42-50.7c10.72-22.42,39.12-41.19,71.32-46.57,0,0,27.07-6.28,35.46-11.15,0,0,9.12-5.9,4.99,7.83,0,0-5.47,13.3-22.29,21.95-3.96,1.98-6.93,2.45-6.28,6.24,1.12,3.87,7.57,.95,8.44,.47,1.55-1.25,16.44-5.38,6.5,8.91-9.99,14.76-16.05,28.19-54.92,41.49-25.87,7.1-36.2,11.06-51.17,24.66-7.49,5.34-6.46-3.1-6.46-3.1v-.04Z"/>
</g></svg>