<!DOCTYPE svg PUBLIC "-//W3C//DTD SVG 1.1//EN" "http://www.w3.org/Graphics/SVG/1.1/DTD/svg11.dtd">
<!-- Uploaded to: SVG Repo, www.svgrepo.com, Transformed by: SVG Repo Mixer Tools -->
<svg width="800px" height="800px" viewBox="-9.6 -9.6 67.20 67.20" xmlns="http://www.w3.org/2000/svg" fill="#F1FF00">
<g id="SVGRepo_bgCarrier" stroke-width="0">
<rect x="-9.6" y="-9.6" width="67.20" height="67.20" rx="13.44" fill="#000000" strokewidth="0"/>
</g>
<g id="SVGRepo_tracerCarrier" stroke-linecap="round" stroke-linejoin="round"/>
<g id="SVGRepo_iconCarrier"> <title>computer-secured-solid</title> <g id="Layer_2" data-name="Layer 2"> <g id="invisible_box" data-name="invisible box"> <rect width="48" height="48" fill="none"/> </g> <g id="Q3_icons" data-name="Q3 icons"> <g> <path d="M41,6H7A2,2,0,0,0,5,8V32a2,2,0,0,0,2,2H41a2,2,0,0,0,2-2V8A2,2,0,0,0,41,6ZM31,20.8c0,3.3-5.1,7.3-6.6,8.1h-.8c-1.4-.8-6.6-4.8-6.6-8.1V15.9L24,12l7,3.9Zm-7-4.2-3,1.7v2.5c.2.8,1.7,2.4,3,3.5Z"/> <path d="M44,38H4a2,2,0,0,0,0,4H44a2,2,0,0,0,0-4Z"/> </g> </g> </g> </g>
</svg>