<!DOCTYPE svg PUBLIC "-//W3C//DTD SVG 1.1//EN" "http://www.w3.org/Graphics/SVG/1.1/DTD/svg11.dtd">
<!-- Uploaded to: SVG Repo, www.svgrepo.com, Transformed by: SVG Repo Mixer Tools -->
<svg fill="#66B2FF" height="800px" width="800px" version="1.1" id="Layer_1" xmlns="http://www.w3.org/2000/svg" xmlns:xlink="http://www.w3.org/1999/xlink" viewBox="-102.4 -102.4 716.80 716.80" xml:space="preserve">
<g id="SVGRepo_bgCarrier" stroke-width="0">
<rect x="-102.4" y="-102.4" width="716.80" height="716.80" rx="143.36" fill="#000000" strokewidth="0"/>
</g>
<g id="SVGRepo_tracerCarrier" stroke-linecap="round" stroke-linejoin="round"/>
<g id="SVGRepo_iconCarrier"> <g> <g> <path d="M510.357,13.184c-2.155-5.227-6.315-9.387-11.541-11.541C496.213,0.576,493.44,0,490.667,0h-128 c-11.797,0-21.333,9.557-21.333,21.333s9.536,21.333,21.333,21.333h76.501l-48.256,48.256C354.133,60.8,307.157,42.667,256,42.667 C138.368,42.667,42.667,138.368,42.667,256c0,51.157,18.133,98.133,48.256,134.912l-48.256,48.256v-76.501 c0-11.776-9.536-21.333-21.333-21.333C9.536,341.333,0,350.891,0,362.667v128c0,2.773,0.576,5.547,1.643,8.149 c2.155,5.227,6.315,9.387,11.541,11.541c2.603,1.067,5.376,1.643,8.149,1.643h128c11.797,0,21.333-9.557,21.333-21.333 s-9.536-21.333-21.333-21.333H72.832l48.256-48.256C157.867,451.2,204.843,469.333,256,469.333 c117.632,0,213.333-95.701,213.333-213.333c0-51.157-18.133-98.133-48.256-134.912l48.256-48.256v76.501 c0,11.776,9.536,21.333,21.333,21.333S512,161.109,512,149.333v-128C512,18.56,511.445,15.787,510.357,13.184z M256,341.333 c-47.061,0-85.333-38.272-85.333-85.333c0-47.061,38.272-85.333,85.333-85.333c47.061,0,85.333,38.272,85.333,85.333 C341.333,303.061,303.061,341.333,256,341.333z"/> </g> </g> <g> <g> <path d="M256,213.333c-23.531,0-42.667,19.136-42.667,42.667s19.136,42.667,42.667,42.667s42.667-19.136,42.667-42.667 S279.531,213.333,256,213.333z"/> </g> </g> </g>
</svg>